<?xml version="1.0" encoding="utf-8"?>
<!-- Generator: Adobe Illustrator 22.0.1, SVG Export Plug-In . SVG Version: 6.00 Build 0)  -->
<svg version="1.1" id="Layer_1" xmlns="http://www.w3.org/2000/svg" xmlns:xlink="http://www.w3.org/1999/xlink" x="0px" y="0px"
	 width="30px" height="30px" viewBox="-5 -5 25 25" style="enable-background:new 0 0 16 16;" xml:space="preserve">
<style type="text/css">
	.st0{fill:#666766;}
	.st1{enable-background:new    ;}
</style>
<g id="Page-1">
	<g id="Offline" transform="translate(-1045.000000, -213.000000)">
		<g id="Export_XLS" transform="translate(1045.000000, 213.000000)">
			<path id="Shape_6_" class="st0" d="M12,0H2v4.5h2V2h6v4h4v8H3v2h13V4L12,0z M12,4V3l1,1H12z"/>
			<g class="st1">
				<path class="st0" d="M3.2,10.5L4.8,13H3.4l-1-1.5l-1,1.5H0l1.7-2.5L0.1,8.1h1.4l0.9,1.4l0.9-1.4h1.4L3.2,10.5z"/>
				<path class="st0" d="M5.2,8.1h1.3v3.8h2.2V13H5.2V8.1z"/>
				<path class="st0" d="M9.2,11.5c0.4,0.3,1,0.5,1.6,0.5c0.4,0,0.8-0.1,0.8-0.4c0-0.2-0.2-0.3-0.4-0.4L10.3,11
					c-0.8-0.2-1.3-0.6-1.3-1.5c0-1,0.8-1.5,1.9-1.5c0.7,0,1.1,0.1,1.5,0.4v1.2C12,9.3,11.5,9.1,11,9.1c-0.4,0-0.6,0.1-0.6,0.4
					c0,0.2,0.2,0.3,0.4,0.4l0.7,0.2c0.9,0.3,1.3,0.8,1.3,1.5c0,1.1-0.9,1.5-2,1.5c-0.7,0-1.2-0.2-1.6-0.4V11.5z"/>
			</g>
		</g>
	</g>
</g>
</svg>
