<?xml version="1.0" encoding="utf-8"?>
<!-- Generator: Adobe Illustrator 23.0.4, SVG Export Plug-In . SVG Version: 6.00 Build 0)  -->
<svg version="1.1" id="Layer_1" xmlns="http://www.w3.org/2000/svg" xmlns:xlink="http://www.w3.org/1999/xlink" x="0px" y="0px"
	 viewBox="0 0 18 18" style="enable-background:new 0 0 18 18;" xml:space="preserve">
<style type="text/css">
	.st0{fill-rule:evenodd;clip-rule:evenodd;fill:#AFD4D0;}
	.st1{fill:#AFD4D0;}
	.st2{fill-rule:evenodd;clip-rule:evenodd;fill:none;}
</style>
<g>
	<defs>
		<rect id="SVGID_7_" x="-80" y="-154" width="1366" height="768"/>
	</defs>
	<clipPath id="SVGID_1_">
		<use xlink:href="#SVGID_7_"  style="overflow:visible;"/>
	</clipPath>
</g>
<g>
	<defs>
		<rect id="SVGID_2_" x="-713" y="-373" width="1366" height="768"/>
	</defs>
	<clipPath id="SVGID_3_">
		<use xlink:href="#SVGID_2_"  style="overflow:visible;"/>
	</clipPath>
</g>
<g>
	<path class="st1" d="M9.2,12.6c-1.9,0-3.5-1.6-3.5-3.5c0-1.9,1.6-3.5,3.5-3.5s3.5,1.6,3.5,3.5C12.7,11,11.1,12.6,9.2,12.6z
		 M9.2,7.4c-0.9,0-1.7,0.7-1.7,1.7c0,0.9,0.7,1.7,1.7,1.7s1.7-0.7,1.7-1.7C10.8,8.2,10.1,7.4,9.2,7.4z"/>
</g>
<g>
	<path class="st1" d="M10.4,18H6.9l-0.3-0.7l-0.5-1.3l-1.8,0.9l-0.6-0.5l-2.5-2.5l0.3-0.7l0.6-1.2l0-0.1l-2-0.7L0,10.4V6.9l0.7-0.3
		l1.3-0.5L1.1,4.2l0.5-0.6l2.5-2.5l0.7,0.3l1.2,0.6l0.1,0l0.7-2L7.6,0h3.5l0.3,0.7l0.5,1.3l1.9-0.9l0.6,0.5l2.5,2.5l-0.3,0.7
		l-0.6,1.2l0,0.1l2,0.7L18,7.6v3.5l-0.7,0.3l-1.3,0.5l0.9,1.9l-0.5,0.6l-2.5,2.5l-0.7-0.3l-1.2-0.6l-0.1,0l-0.7,2L10.4,18z
		 M6.5,16.1C6.5,16.1,6.5,16.1,6.5,16.1L6.5,16.1z M11.6,16.1L11.6,16.1C11.5,16.1,11.5,16.1,11.6,16.1z M8.3,16h1.5l0.4-1
		c0.1-0.3,0.4-0.6,0.7-0.7l0.7-0.3c0.3-0.1,0.6-0.1,0.9,0l1,0.5l1-1l-0.5-1c-0.1-0.3-0.1-0.7,0-1l0.3-0.8c0.1-0.3,0.3-0.5,0.7-0.6
		L16,9.7V8.3l-1-0.3c-0.3-0.1-0.6-0.4-0.7-0.7l-0.3-0.7c-0.1-0.3-0.1-0.6,0-0.9l0.5-1l-1-1l-1,0.5c-0.3,0.1-0.7,0.2-1,0l-0.8-0.3
		c-0.3-0.1-0.6-0.4-0.6-0.7L9.7,2H8.3L7.9,3C7.8,3.4,7.6,3.6,7.3,3.7L6.5,4.1C6.2,4.2,5.9,4.2,5.6,4l-1-0.5l-1,1l0.5,1
		c0.1,0.3,0.2,0.7,0,1L3.7,7.3C3.6,7.6,3.4,7.8,3.1,7.9L2,8.3v1.5l1,0.4c0.3,0.1,0.6,0.4,0.7,0.7l0.3,0.8c0.1,0.3,0.1,0.6,0,0.9
		l-0.5,1l1,1l1-0.5c0.3-0.1,0.7-0.2,0.9,0l0.8,0.3c0.3,0.1,0.5,0.4,0.6,0.7L8.3,16z M5.7,15.8C5.7,15.8,5.7,15.8,5.7,15.8L5.7,15.8z
		 M12.3,15.8L12.3,15.8C12.3,15.8,12.3,15.8,12.3,15.8z M12,15.6L12,15.6C12,15.6,12,15.6,12,15.6z M2.2,12.3
		C2.2,12.3,2.2,12.3,2.2,12.3L2.2,12.3z M15.8,12.2L15.8,12.2C15.8,12.3,15.8,12.2,15.8,12.2z M16.1,11.4l0,0.1
		C16.1,11.5,16.1,11.5,16.1,11.4z M1.9,11.5C1.9,11.5,1.9,11.5,1.9,11.5L1.9,11.5z M1.9,6.5C1.9,6.5,1.9,6.5,1.9,6.5L1.9,6.5z
		 M16.1,6.4L16.1,6.4C16.1,6.5,16.1,6.5,16.1,6.4z M2.2,5.7C2.2,5.7,2.2,5.7,2.2,5.7L2.2,5.7z M15.8,5.7L15.8,5.7
		C15.8,5.7,15.8,5.7,15.8,5.7z M12,2.4L12,2.4C12,2.4,12,2.4,12,2.4z M5.7,2.2C5.7,2.2,5.7,2.2,5.7,2.2L5.7,2.2z M12.2,2.2L12.2,2.2
		C12.3,2.2,12.2,2.2,12.2,2.2z M6.5,1.9C6.5,1.9,6.5,1.9,6.5,1.9L6.5,1.9z M11.5,1.9L11.5,1.9C11.5,1.9,11.5,1.9,11.5,1.9z"/>
</g>
<g>
	<defs>
		<rect id="SVGID_4_" x="-668" y="-371" width="1366" height="768"/>
	</defs>
	<clipPath id="SVGID_5_">
		<use xlink:href="#SVGID_4_"  style="overflow:visible;"/>
	</clipPath>
</g>
</svg>
