<?xml version="1.0" encoding="utf-8"?>
<!-- Generator: Adobe Illustrator 23.0.4, SVG Export Plug-In . SVG Version: 6.00 Build 0)  -->
<svg version="1.1" id="Layer_1" xmlns="http://www.w3.org/2000/svg" xmlns:xlink="http://www.w3.org/1999/xlink" x="0px" y="0px"
	 viewBox="0 0 18 18" style="enable-background:new 0 0 18 18;" xml:space="preserve">
<style type="text/css">
	.st0{fill-rule:evenodd;clip-rule:evenodd;fill:#AFD4D0;}
	.st1{fill:#AFD4D0;}
	.st2{fill-rule:evenodd;clip-rule:evenodd;fill:none;}
</style>
<g>
	<defs>
		<rect id="SVGID_7_" x="-28" y="-154" width="1366" height="768"/>
	</defs>
	<clipPath id="SVGID_1_">
		<use xlink:href="#SVGID_7_"  style="overflow:visible;"/>
	</clipPath>
</g>
<path class="st0" d="M12,6l0-2c0-1.1-0.4-2.5-1.3-3.2C7.9-1.3,5,1.2,5,3.8V6H2v11c0,0.6,0.4,1,1,1h11c0.6,0,1-0.4,1-1V6L12,6z M7,4
	c0-1.4,0.9-1.8,1.5-1.8S10,2.6,10,4v2H7V4z M13,16H4V8h9V16z"/>
<g>
	<defs>
		<rect id="SVGID_2_" x="-661" y="-373" width="1366" height="768"/>
	</defs>
	<clipPath id="SVGID_3_">
		<use xlink:href="#SVGID_2_"  style="overflow:visible;"/>
	</clipPath>
</g>
<g>
	<defs>
		<rect id="SVGID_4_" x="-616" y="-371" width="1366" height="768"/>
	</defs>
	<clipPath id="SVGID_5_">
		<use xlink:href="#SVGID_4_"  style="overflow:visible;"/>
	</clipPath>
</g>
</svg>
