<?xml version="1.0" encoding="utf-8"?>
<!-- Generator: Adobe Illustrator 23.0.4, SVG Export Plug-In . SVG Version: 6.00 Build 0)  -->
<svg version="1.1" id="Layer_1" xmlns="http://www.w3.org/2000/svg" xmlns:xlink="http://www.w3.org/1999/xlink" x="0px" y="0px"
	 viewBox="0 0 18 18" style="enable-background:new 0 0 18 18;" xml:space="preserve">
<style type="text/css">
	.st0{fill-rule:evenodd;clip-rule:evenodd;fill:#AFD4D0;}
	.st1{fill:#AFD4D0;}
	.st2{fill-rule:evenodd;clip-rule:evenodd;fill:none;}
</style>
<g>
	<defs>
		<rect id="SVGID_7_" x="-54" y="-154" width="1366" height="768"/>
	</defs>
	<clipPath id="SVGID_1_">
		<use xlink:href="#SVGID_7_"  style="overflow:visible;"/>
	</clipPath>
</g>
<g>
	<defs>
		<rect id="SVGID_2_" x="-687" y="-373" width="1366" height="768"/>
	</defs>
	<clipPath id="SVGID_3_">
		<use xlink:href="#SVGID_2_"  style="overflow:visible;"/>
	</clipPath>
</g>
<path class="st0" d="M17.8,6.2l-2.8-3.9C14.9,2.1,14.7,2,14.5,2h-11C3.3,2,3.1,2.1,2.9,2.3L0.2,6.2C-0.1,6.5,0,7,0.2,7.3l8.2,9.4
	C8.6,16.9,8.8,17,9,17c0.2,0,0.4-0.1,0.5-0.3l8.2-9.4C18.1,7,18.1,6.5,17.8,6.2z M15.7,5.9h-2.6l-1.6-2.2h2.6L15.7,5.9z M6.8,5.9
	l1.6-2.2h1.3l1.6,2.2H6.8z M11.4,7.5L9,14.2L6.6,7.5H11.4z M5,7.5l1.7,4.8L2.5,7.5H5z M13,7.5h2.5l-4.2,4.8L13,7.5z M3.9,3.7h2.6
	L4.9,5.9H2.3L3.9,3.7z"/>
<g>
	<defs>
		<rect id="SVGID_4_" x="-642" y="-371" width="1366" height="768"/>
	</defs>
	<clipPath id="SVGID_5_">
		<use xlink:href="#SVGID_4_"  style="overflow:visible;"/>
	</clipPath>
</g>
</svg>
