<?xml version="1.0" encoding="utf-8"?>
<!-- Generator: Adobe Illustrator 23.0.4, SVG Export Plug-In . SVG Version: 6.00 Build 0)  -->
<svg version="1.1" id="Layer_1" xmlns="http://www.w3.org/2000/svg" xmlns:xlink="http://www.w3.org/1999/xlink" x="0px" y="0px"
	 viewBox="0 0 18 18" style="enable-background:new 0 0 18 18;" xml:space="preserve">
<style type="text/css">
	.st0{fill-rule:evenodd;clip-rule:evenodd;fill:#AFD4D0;}
	.st1{fill:#AFD4D0;}
	.st2{fill-rule:evenodd;clip-rule:evenodd;fill:none;}
</style>
<g>
	<defs>
		<rect id="SVGID_7_" x="-132" y="-154" width="1366" height="768"/>
	</defs>
	<clipPath id="SVGID_1_">
		<use xlink:href="#SVGID_7_"  style="overflow:visible;"/>
	</clipPath>
</g>
<g>
	<defs>
		<rect id="SVGID_2_" x="-765" y="-373" width="1366" height="768"/>
	</defs>
	<clipPath id="SVGID_3_">
		<use xlink:href="#SVGID_2_"  style="overflow:visible;"/>
	</clipPath>
</g>
<g>
	<defs>
		<rect id="SVGID_4_" x="-720" y="-371" width="1366" height="768"/>
	</defs>
	<clipPath id="SVGID_5_">
		<use xlink:href="#SVGID_4_"  style="overflow:visible;"/>
	</clipPath>
</g>
<path class="st0" d="M13.5,1.7c-1.2,0-2.4,0.5-3.2,1.3L9,4.3L7.7,3C6.9,2.2,5.7,1.7,4.5,1.7C2,1.7,0,3.7,0,6.2
	c0,1.2,0.8,2.4,1.6,3.2L8.2,16c0.4,0.4,1.2,0.4,1.6,0l6.6-6.6c0.8-0.8,1.6-2,1.6-3.2C18,3.7,16,1.7,13.5,1.7z M9,13.6L3.2,7.8
	c-0.4-0.4-0.9-1-0.9-1.6c0-1.2,1-2.2,2.2-2.2c0.6,0,1.2,0.3,1.6,0.7l2.1,2.1c0.4,0.4,1.2,0.4,1.6,0l2.1-2.1c0.4-0.4,1-0.7,1.6-0.7
	c1.2,0,2.2,1,2.2,2.2c0,0.6-0.5,1.2-0.9,1.6L9,13.6z"/>
</svg>
