<?xml version="1.0" encoding="utf-8"?>
<!-- Generator: Adobe Illustrator 23.0.4, SVG Export Plug-In . SVG Version: 6.00 Build 0)  -->
<svg version="1.1" id="Layer_1" xmlns="http://www.w3.org/2000/svg" xmlns:xlink="http://www.w3.org/1999/xlink" x="0px" y="0px"
	 viewBox="0 0 18 18" style="enable-background:new 0 0 18 18;" xml:space="preserve">
<style type="text/css">
	.st0{fill-rule:evenodd;clip-rule:evenodd;fill:#AFD4D0;}
	.st1{fill:#AFD4D0;}
	.st2{fill-rule:evenodd;clip-rule:evenodd;fill:none;}
</style>
<g>
	<defs>
		<rect id="SVGID_7_" x="-106" y="-154" width="1366" height="768"/>
	</defs>
	<clipPath id="SVGID_1_">
		<use xlink:href="#SVGID_7_"  style="overflow:visible;"/>
	</clipPath>
</g>
<g>
	<defs>
		<rect id="SVGID_2_" x="-739" y="-373" width="1366" height="768"/>
	</defs>
	<clipPath id="SVGID_3_">
		<use xlink:href="#SVGID_2_"  style="overflow:visible;"/>
	</clipPath>
</g>
<path class="st0" d="M16.8,13.9c-1.3-2.7-4.3-3.5-7.7-3.5c-3.4,0-6.4,0.8-7.7,3.5C0.7,15.3,0.8,18,2.5,18h13.1
	C17.4,18,17.5,15.3,16.8,13.9z M13.7,16H4.4c-1.2,0-1.3-0.9-0.8-1.6c0.9-1.4,3-1.8,5.4-1.8c2.4,0,4.5,0.4,5.5,1.8
	C15,15.1,15,16,13.7,16z"/>
<path class="st0" d="M9,0C6.2,0,4,2.2,4,5s2.2,5,5,5s5-2.2,5-5S11.8,0,9,0z M9,8C7.3,8,6,6.7,6,5c0-1.7,1.3-3,3-3s3,1.3,3,3
	C12,6.7,10.7,8,9,8z"/>
<g>
	<defs>
		<rect id="SVGID_4_" x="-694" y="-371" width="1366" height="768"/>
	</defs>
	<clipPath id="SVGID_5_">
		<use xlink:href="#SVGID_4_"  style="overflow:visible;"/>
	</clipPath>
</g>
</svg>
