<?xml version="1.0" encoding="utf-8"?>
<!-- Generator: Adobe Illustrator 23.0.4, SVG Export Plug-In . SVG Version: 6.00 Build 0)  -->
<svg version="1.1" id="Layer_1" xmlns="http://www.w3.org/2000/svg" xmlns:xlink="http://www.w3.org/1999/xlink" x="0px" y="0px"
	 width="30px" height="30px" viewBox="-3 -3 30 30" style="enable-background:new 0 0 24 24;" xml:space="preserve">
<style type="text/css">
	.st0{fill:#333333;}
</style>
<path class="st0" d="M8.8,12L5,15l-3.8-3L0,14l5,4l5-4L8.8,12z"/>
<path class="st0" d="M14,2C8.5,2,4,6.5,4,12c0,1,0.2,2,0.5,3h2.1C6.2,14.1,6,13.1,6,12c0-4.4,3.6-8,8-8s8,3.6,8,8c0,4.4-3.6,8-8,8v2
	c5.5,0,10-4.5,10-10C24,6.5,19.5,2,14,2z"/>
<polygon class="st0" points="17,12 17,14 12,14 12,9 14,9 14,12 "/>
</svg>
