<?xml version="1.0" encoding="UTF-8"?>
<svg width="150px" height="150px" viewBox="0 0 63 71" version="1.1" xmlns="http://www.w3.org/2000/svg" xmlns:xlink="http://www.w3.org/1999/xlink">
    <!-- Generator: Sketch 55.2 (78181) - https://sketchapp.com -->
    <title>Group 15</title>
    <desc>Created with Sketch.</desc>
    <g id="Page-1" stroke="none" stroke-width="1" fill="none" fill-rule="evenodd">
        <g id="No_Search_Results-2" transform="translate(-236.000000, -149.000000)" fill="#E0E0E0">
            <g id="Group-15" transform="translate(236.000000, 149.000000)">
                <path d="M48.585,70.1782 L48.585,70.1782 C47.351,71.3352 45.408,71.2612 44.266,70.0132 L35.331,60.3972 C34.206,59.1692 34.278,57.2652 35.494,56.1262 C36.729,54.9692 38.67,55.0432 39.814,56.2912 L48.748,65.9072 C49.873,67.1352 49.8,69.0392 48.585,70.1782" id="Fill-1"></path>
                <path d="M25.542,58.6357 C18.297,58.6357 12.422,52.7607 12.422,45.5157 C12.422,38.2697 18.297,32.3957 25.542,32.3957 C32.788,32.3957 38.663,38.2697 38.663,45.5157 C38.663,52.7607 32.788,58.6357 25.542,58.6357 M25.542,27.9117 C15.821,27.9117 7.938,35.7947 7.938,45.5157 C7.938,55.2367 15.821,63.1187 25.542,63.1187 C35.264,63.1187 43.146,55.2367 43.146,45.5157 C43.146,35.7947 35.264,27.9117 25.542,27.9117" id="Fill-3"></path>
                <polygon id="Fill-5" points="35.9414 15 34.0004 12.971 34.9704 12 37.0004 13.941 38.9414 12 40.0004 12.971 37.9704 15 40.0004 16.941 38.9414 18 37.0004 15.971 34.9704 18 34.0004 16.941"></polygon>
                <polygon id="Fill-7" points="1.9414 19 0.0004 16.971 0.9704 16 3.0004 17.941 4.9414 16 6.0004 16.971 3.9704 19 6.0004 20.941 4.9414 22 3.0004 19.971 0.9704 22 0.0004 20.941"></polygon>
                <path d="M19.5,4.75 C18.537,4.75 17.75,5.538 17.75,6.5 C17.75,7.462 18.537,8.25 19.5,8.25 C20.463,8.25 21.25,7.462 21.25,6.5 C21.25,5.538 20.463,4.75 19.5,4.75 M19.5,10 C17.575,10 16,8.425 16,6.5 C16,4.575 17.575,3 19.5,3 C21.425,3 23,4.575 23,6.5 C23,8.425 21.425,10 19.5,10" id="Fill-9"></path>
                <path d="M53.5,1.75 C52.537,1.75 51.75,2.538 51.75,3.5 C51.75,4.462 52.537,5.25 53.5,5.25 C54.463,5.25 55.25,4.462 55.25,3.5 C55.25,2.538 54.463,1.75 53.5,1.75 M53.5,7 C51.575,7 50,5.425 50,3.5 C50,1.575 51.575,0 53.5,0 C55.425,0 57,1.575 57,3.5 C57,5.425 55.425,7 53.5,7" id="Fill-11"></path>
                <polygon id="Fill-13" points="58.667 30.3335 56 30.3335 56 28.6665 58.667 28.6665 58.667 26.0005 60.333 26.0005 60.333 28.6665 63 28.6665 63 30.3335 60.333 30.3335 60.333 33.0005 58.667 33.0005"></polygon>
            </g>
        </g>
    </g>
</svg>