<?xml version="1.0" encoding="UTF-8"?>
<svg width="13px" height="16px" viewBox="0 0 13 16" version="1.1" xmlns="http://www.w3.org/2000/svg" xmlns:xlink="http://www.w3.org/1999/xlink">
    <!-- Generator: sketchtool 56.3 (101010) - https://sketch.com -->
    <title>F02716B4-EA73-42A6-9232-E6ED4D20AF3A</title>
    <desc>Created with sketchtool.</desc>
    <g id="Configuration" stroke="none" stroke-width="1" fill="none" fill-rule="evenodd">
        <g id="Configuration_Search" transform="translate(-1198.000000, -30.000000)" fill="#FFFFFF">
            <g id="admin/logout" transform="translate(1191.000000, 25.000000)">
                <g id="Group-3" transform="translate(7.000000, 5.000000)">
                    <path d="M11.78632,9.35982667 C11.52632,9.09982667 11.0929867,9.18649333 10.8329867,9.44736 C10.5738533,9.70649333 10.5738533,10.1398267 10.9196533,10.3998267 C11.3529867,10.74736 11.6996533,11.6140267 11.6996533,11.9598267 C11.6996533,12.8264933 11.52632,13.43316 11.18052,13.7806933 C10.5738533,14.3864933 9.18632,14.3864933 7.45298667,14.2998267 L5.63298667,14.2998267 C3.89965333,14.2998267 2.51298667,14.2998267 1.90718667,13.7806933 C1.55965333,13.43316 1.38632,12.8264933 1.38632,11.9598267 C1.38632,11.35316 1.64632,10.83316 2.07965333,10.3140267 C2.34052,10.05316 2.25298667,9.61982667 1.99298667,9.35982667 C1.73298667,9.09982667 1.29965333,9.18649333 1.04052,9.44736 C0.34632,10.2264933 -0.000346666667,11.0064933 -0.000346666667,11.9598267 C-0.000346666667,13.2598267 0.34632,14.1264933 0.952986667,14.73316 C1.99298667,15.5998267 3.55298667,15.5998267 5.63298667,15.5998267 L7.36632,15.5998267 L8.14718667,15.5998267 C9.79298667,15.5998267 11.18052,15.5140267 12.0471867,14.64736 C12.6529867,14.0398267 12.9996533,13.17316 12.9996533,11.87316 C12.9996533,11.1806933 12.48052,9.96649333 11.78632,9.35982667 M6.49965333,1.29982667 C7.88632,1.29982667 9.01385333,2.68649333 9.01385333,4.41982667 C9.01385333,6.15316 7.88632,7.53982667 6.49965333,7.53982667 C5.11298667,7.53982667 3.98632,6.15316 3.98632,4.41982667 C3.98632,2.68649333 5.11298667,1.29982667 6.49965333,1.29982667 M6.49965333,8.83982667 C8.66632,8.83982667 10.3996533,6.84649333 10.3996533,4.41982667 C10.3996533,1.99316 8.66632,-0.000173333333 6.49965333,-0.000173333333 C4.33298667,-0.000173333333 2.59965333,1.99316 2.59965333,4.41982667 C2.59965333,6.84649333 4.33298667,8.83982667 6.49965333,8.83982667" id="Fill-1"></path>
                </g>
            </g>
        </g>
    </g>
</svg>