<?xml version="1.0" encoding="UTF-8"?>
<svg width="20px" height="16px" viewBox="0 0 20 16" version="1.1" xmlns="http://www.w3.org/2000/svg" xmlns:xlink="http://www.w3.org/1999/xlink">
    <!-- Generator: Sketch 55 (78076) - https://sketchapp.com -->
    <title>Fill 1</title>
    <desc>Created with Sketch.</desc>
    <g id="Page-1" stroke="none" stroke-width="1" fill="none" fill-rule="evenodd">
        <g id="Coming-soon" transform="translate(-539.000000, -479.000000)" fill="#FFFFFF">
            <g id="Group-2" transform="translate(501.000000, 476.000000)">
                <g id="Group-3" transform="translate(38.000000, 3.000000)">
                    <path d="M20,1.8935 C19.264,2.2135 18.474,2.4315 17.644,2.5295 C18.491,2.0295 19.141,1.2385 19.448,0.2945 C18.655,0.7575 17.776,1.0935 16.842,1.2745 C16.093,0.4905 15.027,-0.0005 13.847,-0.0005 C11.581,-0.0005 9.744,1.8075 9.744,4.0385 C9.744,4.3545 9.78,4.6625 9.85,4.9575 C6.44,4.7895 3.416,3.1815 1.393,0.7385 C1.039,1.3345 0.837,2.0295 0.837,2.7695 C0.837,4.1695 1.562,5.4065 2.662,6.1305 C1.99,6.1095 1.357,5.9275 0.804,5.6245 C0.803,5.6425 0.803,5.6595 0.803,5.6755 C0.803,7.6325 2.218,9.2645 4.095,9.6355 C3.75,9.7285 3.388,9.7775 3.014,9.7775 C2.75,9.7775 2.493,9.7525 2.242,9.7055 C2.764,11.3095 4.279,12.4775 6.075,12.5095 C4.67,13.5935 2.901,14.2385 0.979,14.2385 C0.647,14.2385 0.321,14.2195 0,14.1825 C1.816,15.3285 3.973,15.9975 6.29,15.9975 C13.837,15.9975 17.964,9.8425 17.964,4.5055 C17.964,4.3315 17.96,4.1565 17.953,3.9835 C18.754,3.4145 19.45,2.7035 20,1.8935" id="Fill-1"></path>
                </g>
            </g>
        </g>
    </g>
</svg>