<?xml version="1.0" encoding="utf-8"?>
<!-- Generator: Adobe Illustrator 23.0.4, SVG Export Plug-In . SVG Version: 6.00 Build 0)  -->
<svg version="1.1" id="Layer_2" xmlns="http://www.w3.org/2000/svg" xmlns:xlink="http://www.w3.org/1999/xlink" x="0px" y="0px"
	 viewBox="0 0 16 16" style="enable-background:new 0 0 16 16;" xml:space="preserve">
<style type="text/css">
	.st0{fill-rule:evenodd;clip-rule:evenodd;fill:#FFFFFF;}
</style>
<g id="Configuration">
	<g id="Configuration_Search" transform="translate(-1198.000000, -30.000000)">
		<g transform="translate(1191.000000, 25.000000)">
			<g id="Group-3" transform="translate(7.000000, 5.000000)">
				<path id="Fill-1" class="st0" d="M14.2,9.6c-0.3-0.3-0.7-0.2-1.1,0.1s-0.3,0.7,0.1,1c0.4,0.3,0.9,1.2,0.9,1.6
					c0,0.9-0.2,1.5-0.5,1.8c-0.6,0.6-2.1,0.6-4,0.5h-2c-1.8,0-3.3,0-4-0.5c-0.3-0.3-0.5-1-0.5-1.8c0-0.6,0.3-1.1,0.7-1.6
					c0.3-0.3,0.2-0.7-0.1-1C3.4,9.3,2.9,9.4,2.6,9.6c-0.7,0.8-1.1,1.6-1.1,2.6c0,1.3,0.3,2.2,1.1,2.9C3.7,16,5.4,16,7.6,16h1.8h0.9
					c1.7,0,3.2-0.1,4.2-1c0.6-0.6,1.1-1.5,1.1-2.9C15.4,11.4,14.9,10.2,14.2,9.6 M8.5,1.3c1.5,0,2.7,1.4,2.7,3.2S10,7.6,8.5,7.6
					S5.8,6.3,5.8,4.5S7,1.3,8.5,1.3 M8.5,9c2.4,0,4.2-2,4.2-4.5S10.8,0,8.5,0S4.3,2,4.3,4.5S6.1,9,8.5,9"/>
			</g>
		</g>
	</g>
</g>
</svg>
